<?xml version="1.0" encoding="utf-8"?>
<svg viewBox="1142.25634765625 705.5266723632812 84.336669921875 23.03411865234375" width="84.336669921875" height="23.03411865234375" xmlns="http://www.w3.org/2000/svg"><path fill="#CCCCCC" d="M1985.7,1375.8c7.6-1.8,13.1-9.1,20.9-10.4c26.1-6.7,51.1-16.1,79.7-16.9c3.8-0.1,8.6,0.3,12.6-0.4&#10;&#9;&#9;&#9;c1.3-0.1,2.5,0.9,4,0l0.4,0.4l0.4-0.4c5.8,1.7,13.1-0.4,18.7,1.8c1.8-0.3,4.1,0.5,6.1,0.7c-0.1,0.3,0.2,0.5,0.4,0.7&#10;&#9;&#9;&#9;c-2.8,0.9-6.4-0.4-9,1.1c7.1,1.8,14.9,2.1,22,4v0.7c-2.8-0.1-5.7,0.3-8.3-0.4l-0.4,0.4c-8.6-0.8-16.4-1.6-25.2-0.7l-0.4-0.4&#10;&#9;&#9;&#9;c-19.3,1-37.1,5.7-54,12.6l0.4,0.4c2.9-1,6.2-1.1,9.4-1.5v0.7c-12.1,3-22.9,6.6-33.9,12.3c0.8,0.6,2.2,0.2,3.2,0.4&#10;&#9;&#9;&#9;c-0.9,1.2-3,1.2-4.3,2.2c-6.1,3-12,7-18.4,8.6c-0.3-1.6,2.9-1.2,1.8-2.9c-1.6,0.4-3.1,0.7-4.7,1.1c-1.5-1.9-4-2-5.1-4&#10;&#9;&#9;&#9;c-1.8,0.7-1.6-1.2-2.9-1.8c-2.8,0.5-6,2.3-8.7,1.1C1989.9,1380.7,1980.8,1381.3,1985.7,1375.8z" transform="matrix(0.5235042572021484, 0, 0, 0.5235042572021484, 105.29924774169916, 0.000004561539753922261)"/></svg>